<svg width="270" height="335" viewBox="0 0 270 335" fill="none" xmlns="http://www.w3.org/2000/svg">
<path fill-rule="evenodd" clip-rule="evenodd" d="M141.712 38.4206C157.434 46.4057 173.936 51.1158 188.625 61.2395C202.321 70.6798 213.101 83.5303 224.884 95.7453C238.306 109.659 260.902 118.361 263.23 138.581C265.637 159.487 235.36 172.223 236.113 193.283C237.261 225.377 278.696 251.462 268.34 281.454C259.678 306.536 223.03 299.488 198.875 301.12C179.321 302.442 160.776 285.005 141.712 290.01C114.611 297.125 97.6975 335.558 69.8532 334.994C44.5658 334.482 13.368 314.853 8.46735 287.312C2.47458 253.634 44.5276 228.259 44.7525 193.931C44.9074 170.286 15.5423 158.523 9.45961 135.861C1.92093 107.776 -5.55702 75.5471 5.8871 49.1378C17.0722 23.3263 42.5426 2.14945 68.282 0.118494C95.6011 -2.03711 116.808 25.7717 141.712 38.4206Z" fill="#FFCC33"/>
</svg>
