<svg width="542" height="466" viewBox="0 0 542 466" fill="none" xmlns="http://www.w3.org/2000/svg">
<path d="M527.92 0.139622L7.99878 9.21487C3.58118 9.29198 0.0625097 12.9357 0.139619 17.3533L5.89891 347.303C5.97602 351.721 9.61971 355.239 14.0373 355.162L533.958 346.087C538.376 346.01 541.894 342.366 541.817 337.949L536.058 7.99878C535.981 3.58118 532.337 0.0625124 527.92 0.139622Z" fill="#E8EAF6"/>
<mask id="mask0_194_38" style="mask-type:luminance" maskUnits="userSpaceOnUse" x="0" y="0" width="542" height="356">
<path d="M527.92 0.139622L7.99878 9.21487C3.58118 9.29198 0.0625097 12.9357 0.139619 17.3533L5.89891 347.303C5.97602 351.721 9.61971 355.239 14.0373 355.162L533.958 346.087C538.376 346.01 541.894 342.366 541.817 337.949L536.058 7.99878C535.981 3.58118 532.337 0.0625124 527.92 0.139622Z" fill="white"/>
</mask>
<g mask="url(#mask0_194_38)">
<path fill-rule="evenodd" clip-rule="evenodd" d="M-3.52612 9.6131L543.391 0.0666322L544.42 59.0576L-2.49643 68.6041L-3.52612 9.6131Z" fill="#242A45"/>
<path opacity="0.245" d="M39.2704 54.8731C48.1056 54.7189 55.1429 47.4315 54.9887 38.5963C54.8345 29.7611 47.5471 22.7238 38.7119 22.878C29.8767 23.0322 22.8394 30.3196 22.9936 39.1548C23.1478 47.99 30.4352 55.0273 39.2704 54.8731Z" fill="white"/>
<path opacity="0.104" d="M500.2 46.8276C509.035 46.6734 516.073 39.386 515.918 30.5508C515.764 21.7156 508.477 14.6782 499.642 14.8325C490.806 14.9867 483.769 22.274 483.923 31.1093C484.078 39.9445 491.365 46.9818 500.2 46.8276Z" fill="white"/>
<path opacity="0.75" d="M186.794 26.2941L72.8116 28.2837C71.155 28.3126 69.8355 29.679 69.8644 31.3356C69.8933 32.9922 71.2597 34.3117 72.9163 34.2828L186.899 32.2932C188.556 32.2643 189.875 30.8979 189.846 29.2413C189.817 27.5847 188.451 26.2652 186.794 26.2941Z" fill="white"/>
<path opacity="0.25" d="M131.047 41.2693L73.0559 42.2816C71.3993 42.3105 70.0798 43.6769 70.1088 45.3335C70.1377 46.9901 71.5041 48.3096 73.1607 48.2807L131.152 47.2684C132.808 47.2395 134.128 45.8731 134.099 44.2165C134.07 42.5599 132.704 41.2404 131.047 41.2693Z" fill="white"/>
</g>
<mask id="mask1_194_38" style="mask-type:luminance" maskUnits="userSpaceOnUse" x="0" y="0" width="542" height="356">
<path d="M527.92 0.139622L7.99878 9.21487C3.58118 9.29198 0.0625097 12.9357 0.139619 17.3533L5.89891 347.303C5.97602 351.721 9.61971 355.239 14.0373 355.162L533.958 346.087C538.376 346.01 541.894 342.366 541.817 337.949L536.058 7.99878C535.981 3.58118 532.337 0.0625124 527.92 0.139622Z" fill="white"/>
</mask>
<g mask="url(#mask1_194_38)">
<path d="M311.576 96.9301L66.6133 101.206C62.1957 101.283 58.677 104.927 58.7541 109.344L63.9898 409.299C64.067 413.716 67.7106 417.235 72.1282 417.158L317.091 412.882C321.509 412.805 325.027 409.161 324.95 404.744L319.714 104.789C319.637 100.372 315.994 96.853 311.576 96.9301Z" fill="white"/>
<path d="M473.551 94.1028L361.568 96.0575C357.151 96.1346 353.632 99.7783 353.709 104.196L358.945 404.15C359.022 408.568 362.666 412.086 367.083 412.009L479.066 410.055C483.484 409.978 487.003 406.334 486.925 401.916L481.69 101.962C481.613 97.5444 477.969 94.0257 473.551 94.1028Z" fill="white"/>
<path opacity="0.5" d="M254.721 136.125L140.739 138.115C139.082 138.144 137.763 139.51 137.792 141.167C137.821 142.823 139.187 144.143 140.844 144.114L254.826 142.124C256.483 142.095 257.802 140.729 257.773 139.072C257.744 137.416 256.378 136.096 254.721 136.125Z" fill="#242A45"/>
</g>
<path d="M107.198 164.704C116.033 164.55 123.07 157.263 122.916 148.427C122.762 139.592 115.474 132.555 106.639 132.709C97.804 132.863 90.7666 140.151 90.9208 148.986C91.0751 157.821 98.3624 164.859 107.198 164.704Z" fill="#F98E5D"/>
<path opacity="0.25" d="M459.411 116.55L377.423 117.981C375.767 118.01 374.447 119.376 374.476 121.033C374.505 122.69 375.871 124.009 377.528 123.98L459.516 122.549C461.172 122.52 462.492 121.154 462.463 119.497C462.434 117.841 461.067 116.521 459.411 116.55Z" fill="#242A45"/>
<path opacity="0.25" d="M459.76 136.547L377.772 137.978C376.116 138.007 374.796 139.373 374.825 141.03C374.854 142.687 376.22 144.006 377.877 143.977L459.864 142.546C461.521 142.517 462.841 141.151 462.812 139.494C462.783 137.838 461.416 136.518 459.76 136.547Z" fill="#242A45"/>
<path opacity="0.25" d="M460.109 156.544L378.121 157.975C376.465 158.004 375.145 159.37 375.174 161.027C375.203 162.683 376.569 164.003 378.226 163.974L460.214 162.543C461.87 162.514 463.19 161.148 463.161 159.491C463.132 157.834 461.765 156.515 460.109 156.544Z" fill="#242A45"/>
<path opacity="0.25" d="M460.458 176.541L378.47 177.972C376.814 178.001 375.494 179.367 375.523 181.024C375.552 182.68 376.919 184 378.575 183.971L460.563 182.54C462.219 182.511 463.539 181.145 463.51 179.488C463.481 177.831 462.115 176.512 460.458 176.541Z" fill="#242A45"/>
<path opacity="0.25" d="M461.051 210.536L379.064 211.967C377.407 211.996 376.088 213.362 376.117 215.019C376.145 216.675 377.512 217.995 379.168 217.966L461.156 216.535C462.813 216.506 464.132 215.139 464.103 213.483C464.074 211.826 462.708 210.507 461.051 210.536Z" fill="#242A45"/>
<path opacity="0.25" d="M461.4 230.533L379.413 231.964C377.756 231.993 376.437 233.359 376.466 235.016C376.495 236.672 377.861 237.992 379.518 237.963L461.505 236.532C463.162 236.503 464.481 235.136 464.452 233.48C464.423 231.823 463.057 230.504 461.4 230.533Z" fill="#242A45"/>
<path opacity="0.25" d="M461.75 250.53L379.762 251.961C378.105 251.99 376.786 253.356 376.815 255.013C376.844 256.669 378.21 257.989 379.867 257.96L461.854 256.529C463.511 256.5 464.83 255.133 464.801 253.477C464.772 251.82 463.406 250.501 461.75 250.53Z" fill="#242A45"/>
<path opacity="0.25" d="M198.974 151.101L140.983 152.113C139.326 152.142 138.007 153.508 138.036 155.165C138.065 156.821 139.431 158.141 141.088 158.112L199.079 157.1C200.735 157.071 202.055 155.704 202.026 154.048C201.997 152.391 200.631 151.072 198.974 151.101Z" fill="#242A45"/>
<path d="M108.175 220.696C117.01 220.542 124.047 213.254 123.893 204.419C123.739 195.584 116.452 188.546 107.616 188.701C98.7812 188.855 91.7439 196.142 91.8981 204.977C92.0524 213.813 99.3397 220.85 108.175 220.696Z" fill="#6AC6D6"/>
<path opacity="0.5" d="M255.699 192.117L141.716 194.106C140.059 194.135 138.74 195.502 138.769 197.158C138.798 198.815 140.164 200.134 141.821 200.105L255.803 198.116C257.46 198.087 258.78 196.721 258.751 195.064C258.722 193.407 257.355 192.088 255.699 192.117Z" fill="#242A45"/>
<path opacity="0.25" d="M199.951 207.092L141.96 208.104C140.304 208.133 138.984 209.5 139.013 211.156C139.042 212.813 140.408 214.132 142.065 214.103L200.056 213.091C201.713 213.062 203.032 211.696 203.003 210.039C202.974 208.383 201.608 207.063 199.951 207.092Z" fill="#242A45"/>
<path d="M109.152 276.687C117.987 276.533 125.025 269.246 124.871 260.41C124.716 251.575 117.429 244.538 108.594 244.692C99.7585 244.846 92.7212 252.134 92.8754 260.969C93.0296 269.804 100.317 276.841 109.152 276.687Z" fill="#A47ED4"/>
<path opacity="0.5" d="M256.676 248.108L142.693 250.098C141.037 250.127 139.717 251.493 139.746 253.15C139.775 254.806 141.142 256.126 142.798 256.097L256.781 254.107C258.437 254.078 259.757 252.712 259.728 251.055C259.699 249.399 258.333 248.079 256.676 248.108Z" fill="#242A45"/>
<path opacity="0.25" d="M200.929 263.083L142.938 264.096C141.281 264.125 139.961 265.491 139.99 267.148C140.019 268.804 141.386 270.124 143.042 270.095L201.033 269.083C202.69 269.054 204.01 267.687 203.981 266.031C203.952 264.374 202.585 263.055 200.929 263.083Z" fill="#242A45"/>
<path d="M110.13 332.679C118.965 332.524 126.002 325.237 125.848 316.402C125.694 307.567 118.406 300.529 109.571 300.684C100.736 300.838 93.6985 308.125 93.8527 316.96C94.0069 325.796 101.294 332.833 110.13 332.679Z" fill="#EC7878"/>
<path opacity="0.5" d="M257.653 304.1L143.671 306.089C142.014 306.118 140.695 307.485 140.723 309.141C140.752 310.798 142.119 312.117 143.775 312.088L257.758 310.099C259.415 310.07 260.734 308.703 260.705 307.047C260.676 305.39 259.31 304.071 257.653 304.1Z" fill="#242A45"/>
<path opacity="0.25" d="M201.906 319.075L143.915 320.087C142.258 320.116 140.939 321.482 140.968 323.139C140.997 324.796 142.363 326.115 144.02 326.086L202.011 325.074C203.667 325.045 204.987 323.679 204.958 322.022C204.929 320.365 203.563 319.046 201.906 319.075Z" fill="#242A45"/>
<g filter="url(#filter0_d_194_38)">
<g filter="url(#filter1_d_194_38)">
<path d="M202 196H18C13.5817 196 10 199.582 10 204V443C10 447.418 13.5817 451 18 451H202C206.418 451 210 447.418 210 443V204C210 199.582 206.418 196 202 196Z" fill="black"/>
</g>
<path d="M202 196H18C13.5817 196 10 199.582 10 204V443C10 447.418 13.5817 451 18 451H202C206.418 451 210 447.418 210 443V204C210 199.582 206.418 196 202 196Z" fill="white"/>
<path opacity="0.5" d="M177 231H81.6831C80.0263 231 78.6831 232.343 78.6831 234C78.6831 235.657 80.0263 237 81.6831 237H177C178.657 237 180 235.657 180 234C180 232.343 178.657 231 177 231Z" fill="#242A45"/>
<path d="M49 257C57.8366 257 65 249.837 65 241C65 232.163 57.8366 225 49 225C40.1634 225 33 232.163 33 241C33 249.837 40.1634 257 49 257Z" fill="#5267DF"/>
<path opacity="0.25" d="M129.719 245H81.6831C80.0263 245 78.6831 246.343 78.6831 248C78.6831 249.657 80.0263 251 81.6831 251H129.719C131.376 251 132.719 249.657 132.719 248C132.719 246.343 131.376 245 129.719 245Z" fill="#242A45"/>
<path d="M49 313C57.8366 313 65 305.837 65 297C65 288.163 57.8366 281 49 281C40.1634 281 33 288.163 33 297C33 305.837 40.1634 313 49 313Z" fill="#FA5959"/>
<path opacity="0.5" d="M177 287H81.6831C80.0263 287 78.6831 288.343 78.6831 290C78.6831 291.657 80.0263 293 81.6831 293H177C178.657 293 180 291.657 180 290C180 288.343 178.657 287 177 287Z" fill="#242A45"/>
<path opacity="0.25" d="M129.719 301H81.6831C80.0263 301 78.6831 302.343 78.6831 304C78.6831 305.657 80.0263 307 81.6831 307H129.719C131.376 307 132.719 305.657 132.719 304C132.719 302.343 131.376 301 129.719 301Z" fill="#242A45"/>
<path d="M49 369C57.8366 369 65 361.837 65 353C65 344.163 57.8366 337 49 337C40.1634 337 33 344.163 33 353C33 361.837 40.1634 369 49 369Z" fill="#5267DF"/>
<path opacity="0.5" d="M177 343H81.6831C80.0263 343 78.6831 344.343 78.6831 346C78.6831 347.657 80.0263 349 81.6831 349H177C178.657 349 180 347.657 180 346C180 344.343 178.657 343 177 343Z" fill="#242A45"/>
<path opacity="0.25" d="M129.719 357H81.6831C80.0263 357 78.6831 358.343 78.6831 360C78.6831 361.657 80.0263 363 81.6831 363H129.719C131.376 363 132.719 361.657 132.719 360C132.719 358.343 131.376 357 129.719 357Z" fill="#242A45"/>
<path d="M49 425C57.8366 425 65 417.837 65 409C65 400.163 57.8366 393 49 393C40.1634 393 33 400.163 33 409C33 417.837 40.1634 425 49 425Z" fill="#5267DF"/>
<path opacity="0.5" d="M177 399H81.6831C80.0263 399 78.6831 400.343 78.6831 402C78.6831 403.657 80.0263 405 81.6831 405H177C178.657 405 180 403.657 180 402C180 400.343 178.657 399 177 399Z" fill="#242A45"/>
<path opacity="0.25" d="M129.719 413H81.6831C80.0263 413 78.6831 414.343 78.6831 416C78.6831 417.657 80.0263 419 81.6831 419H129.719C131.376 419 132.719 417.657 132.719 416C132.719 414.343 131.376 413 129.719 413Z" fill="#242A45"/>
</g>
<g filter="url(#filter2_d_194_38)">
<g filter="url(#filter3_d_194_38)">
<path d="M418 196H234C229.582 196 226 199.582 226 204V443C226 447.418 229.582 451 234 451H418C422.418 451 426 447.418 426 443V204C426 199.582 422.418 196 418 196Z" fill="black"/>
</g>
<path d="M418 196H234C229.582 196 226 199.582 226 204V443C226 447.418 229.582 451 234 451H418C422.418 451 426 447.418 426 443V204C426 199.582 422.418 196 418 196Z" fill="white"/>
<path opacity="0.5" d="M393 231H297.683C296.026 231 294.683 232.343 294.683 234C294.683 235.657 296.026 237 297.683 237H393C394.657 237 396 235.657 396 234C396 232.343 394.657 231 393 231Z" fill="#242A45"/>
<path d="M265 257C273.837 257 281 249.837 281 241C281 232.163 273.837 225 265 225C256.163 225 249 232.163 249 241C249 249.837 256.163 257 265 257Z" fill="#5267DF"/>
<path opacity="0.25" d="M345.719 245H297.683C296.026 245 294.683 246.343 294.683 248C294.683 249.657 296.026 251 297.683 251H345.719C347.376 251 348.719 249.657 348.719 248C348.719 246.343 347.376 245 345.719 245Z" fill="#242A45"/>
<path d="M265 313C273.837 313 281 305.837 281 297C281 288.163 273.837 281 265 281C256.163 281 249 288.163 249 297C249 305.837 256.163 313 265 313Z" fill="#FA5959"/>
<path opacity="0.5" d="M393 287H297.683C296.026 287 294.683 288.343 294.683 290C294.683 291.657 296.026 293 297.683 293H393C394.657 293 396 291.657 396 290C396 288.343 394.657 287 393 287Z" fill="#242A45"/>
<path opacity="0.25" d="M345.719 301H297.683C296.026 301 294.683 302.343 294.683 304C294.683 305.657 296.026 307 297.683 307H345.719C347.376 307 348.719 305.657 348.719 304C348.719 302.343 347.376 301 345.719 301Z" fill="#242A45"/>
<path d="M265 369C273.837 369 281 361.837 281 353C281 344.163 273.837 337 265 337C256.163 337 249 344.163 249 353C249 361.837 256.163 369 265 369Z" fill="#5267DF"/>
<path opacity="0.5" d="M393 343H297.683C296.026 343 294.683 344.343 294.683 346C294.683 347.657 296.026 349 297.683 349H393C394.657 349 396 347.657 396 346C396 344.343 394.657 343 393 343Z" fill="#242A45"/>
<path opacity="0.25" d="M345.719 357H297.683C296.026 357 294.683 358.343 294.683 360C294.683 361.657 296.026 363 297.683 363H345.719C347.376 363 348.719 361.657 348.719 360C348.719 358.343 347.376 357 345.719 357Z" fill="#242A45"/>
<path d="M265 425C273.837 425 281 417.837 281 409C281 400.163 273.837 393 265 393C256.163 393 249 400.163 249 409C249 417.837 256.163 425 265 425Z" fill="#5267DF"/>
<path opacity="0.5" d="M393 399H297.683C296.026 399 294.683 400.343 294.683 402C294.683 403.657 296.026 405 297.683 405H393C394.657 405 396 403.657 396 402C396 400.343 394.657 399 393 399Z" fill="#242A45"/>
<path opacity="0.25" d="M345.719 413H297.683C296.026 413 294.683 414.343 294.683 416C294.683 417.657 296.026 419 297.683 419H345.719C347.376 419 348.719 417.657 348.719 416C348.719 414.343 347.376 413 345.719 413Z" fill="#242A45"/>
</g>
<defs>
<filter id="filter0_d_194_38" x="0" y="191" width="220" height="275" filterUnits="userSpaceOnUse" color-interpolation-filters="sRGB">
<feFlood flood-opacity="0" result="BackgroundImageFix"/>
<feColorMatrix in="SourceAlpha" type="matrix" values="0 0 0 0 0 0 0 0 0 0 0 0 0 0 0 0 0 0 127 0" result="hardAlpha"/>
<feOffset dy="5"/>
<feGaussianBlur stdDeviation="5"/>
<feColorMatrix type="matrix" values="0 0 0 0 0.285333 0 0 0 0 0.363695 0 0 0 0 0.811481 0 0 0 0.0830693 0"/>
<feBlend mode="normal" in2="BackgroundImageFix" result="effect1_dropShadow_194_38"/>
<feBlend mode="normal" in="SourceGraphic" in2="effect1_dropShadow_194_38" result="shape"/>
</filter>
<filter id="filter1_d_194_38" x="0" y="191" width="220" height="275" filterUnits="userSpaceOnUse" color-interpolation-filters="sRGB">
<feFlood flood-opacity="0" result="BackgroundImageFix"/>
<feColorMatrix in="SourceAlpha" type="matrix" values="0 0 0 0 0 0 0 0 0 0 0 0 0 0 0 0 0 0 127 0" result="hardAlpha"/>
<feOffset dy="5"/>
<feGaussianBlur stdDeviation="5"/>
<feColorMatrix type="matrix" values="0 0 0 0 0.285333 0 0 0 0 0.363695 0 0 0 0 0.811481 0 0 0 0.0830693 0"/>
<feBlend mode="normal" in2="BackgroundImageFix" result="effect1_dropShadow_194_38"/>
<feBlend mode="normal" in="SourceGraphic" in2="effect1_dropShadow_194_38" result="shape"/>
</filter>
<filter id="filter2_d_194_38" x="216" y="191" width="220" height="275" filterUnits="userSpaceOnUse" color-interpolation-filters="sRGB">
<feFlood flood-opacity="0" result="BackgroundImageFix"/>
<feColorMatrix in="SourceAlpha" type="matrix" values="0 0 0 0 0 0 0 0 0 0 0 0 0 0 0 0 0 0 127 0" result="hardAlpha"/>
<feOffset dy="5"/>
<feGaussianBlur stdDeviation="5"/>
<feColorMatrix type="matrix" values="0 0 0 0 0.285333 0 0 0 0 0.363695 0 0 0 0 0.811481 0 0 0 0.0830693 0"/>
<feBlend mode="normal" in2="BackgroundImageFix" result="effect1_dropShadow_194_38"/>
<feBlend mode="normal" in="SourceGraphic" in2="effect1_dropShadow_194_38" result="shape"/>
</filter>
<filter id="filter3_d_194_38" x="216" y="191" width="220" height="275" filterUnits="userSpaceOnUse" color-interpolation-filters="sRGB">
<feFlood flood-opacity="0" result="BackgroundImageFix"/>
<feColorMatrix in="SourceAlpha" type="matrix" values="0 0 0 0 0 0 0 0 0 0 0 0 0 0 0 0 0 0 127 0" result="hardAlpha"/>
<feOffset dy="5"/>
<feGaussianBlur stdDeviation="5"/>
<feColorMatrix type="matrix" values="0 0 0 0 0.285333 0 0 0 0 0.363695 0 0 0 0 0.811481 0 0 0 0.0830693 0"/>
<feBlend mode="normal" in2="BackgroundImageFix" result="effect1_dropShadow_194_38"/>
<feBlend mode="normal" in="SourceGraphic" in2="effect1_dropShadow_194_38" result="shape"/>
</filter>
</defs>
</svg>
