<svg width="440" height="380" viewBox="0 0 440 380" fill="none" xmlns="http://www.w3.org/2000/svg">
<g clip-path="url(#clip0_147_299)">
<path d="M447 -1H113C108.582 -1 105 2.58172 105 7V337C105 341.418 108.582 345 113 345H447C451.418 345 455 341.418 455 337V7C455 2.58172 451.418 -1 447 -1Z" fill="#E8EAF6"/>
<mask id="mask0_147_299" style="mask-type:luminance" maskUnits="userSpaceOnUse" x="105" y="-1" width="350" height="346">
<path d="M447 -1H113C108.582 -1 105 2.58172 105 7V337C105 341.418 108.582 345 113 345H447C451.418 345 455 341.418 455 337V7C455 2.58172 451.418 -1 447 -1Z" fill="white"/>
</mask>
<g mask="url(#mask0_147_299)">
<path fill-rule="evenodd" clip-rule="evenodd" d="M101.47 -0.802979H648.47V58.197H101.47V-0.802979Z" fill="#242A45"/>
<path opacity="0.245" d="M143.47 45.197C152.307 45.197 159.47 38.0336 159.47 29.197C159.47 20.3605 152.307 13.197 143.47 13.197C134.633 13.197 127.47 20.3605 127.47 29.197C127.47 38.0336 134.633 45.197 143.47 45.197Z" fill="white"/>
<path opacity="0.75" d="M291.47 19.197H177.47C175.813 19.197 174.47 20.5402 174.47 22.197C174.47 23.8539 175.813 25.197 177.47 25.197H291.47C293.127 25.197 294.47 23.8539 294.47 22.197C294.47 20.5402 293.127 19.197 291.47 19.197Z" fill="white"/>
<path opacity="0.25" d="M235.47 33.197H177.47C175.813 33.197 174.47 34.5402 174.47 36.197C174.47 37.8539 175.813 39.197 177.47 39.197H235.47C237.127 39.197 238.47 37.8539 238.47 36.197C238.47 34.5402 237.127 33.197 235.47 33.197Z" fill="white"/>
</g>
<path d="M421 87H200C195.582 87 192 90.5817 192 95V113C192 117.418 195.582 121 200 121H421C425.418 121 429 117.418 429 113V95C429 90.5817 425.418 87 421 87Z" fill="white"/>
<path d="M421 135H200C195.582 135 192 138.582 192 143V161C192 165.418 195.582 169 200 169H421C425.418 169 429 165.418 429 161V143C429 138.582 425.418 135 421 135Z" fill="white"/>
<path d="M421 183H200C195.582 183 192 186.582 192 191V209C192 213.418 195.582 217 200 217H421C425.418 217 429 213.418 429 209V191C429 186.582 425.418 183 421 183Z" fill="white"/>
<path d="M421 231H200C195.582 231 192 234.582 192 239V257C192 261.418 195.582 265 200 265H421C425.418 265 429 261.418 429 257V239C429 234.582 425.418 231 421 231Z" fill="white"/>
<path d="M421 279H200C195.582 279 192 282.582 192 287V305C192 309.418 195.582 313 200 313H421C425.418 313 429 309.418 429 305V287C429 282.582 425.418 279 421 279Z" fill="white"/>
<mask id="mask1_147_299" style="mask-type:luminance" maskUnits="userSpaceOnUse" x="2" y="69" width="350" height="296">
<path d="M352 69H2.21875V364.952H352V69Z" fill="white"/>
</mask>
<g mask="url(#mask1_147_299)">
<path fill-rule="evenodd" clip-rule="evenodd" d="M3.29272 319.292C3.96274 321.31 5.00772 323.29 6.46674 325.227C31.6687 358.701 125.843 369.859 218.691 363.041C267.167 359.479 301.361 338.515 322.972 319.291C327.657 315.125 332.117 310.711 336.332 306.069C341.001 300.924 344.645 295.209 347.242 289.174C354.889 271.396 353.416 250.858 342.119 234.013C332.542 219.737 319.397 209.189 312.606 197.47C299.674 175.152 368.043 118.734 323.552 83.09C307.848 70.506 274.392 67.602 237.89 69.554C193.462 71.932 144.525 81.509 117.606 89.599C61.8937 106.336 27.0257 130.579 19.0667 157.855C11.1087 185.131 32.3777 197.473 50.9467 223.509C68.4417 248.035 -7.60626 286.506 3.29272 319.292Z" fill="#3A499E"/>
</g>
<path fill-rule="evenodd" clip-rule="evenodd" d="M97.4508 159.824L114.436 156.952L117 172.751L95.9998 178.952L97.4508 159.824Z" fill="#306299"/>
<path fill-rule="evenodd" clip-rule="evenodd" d="M115 158.07C115 158.07 128.176 157.722 142 151.952L135.504 164.206L116.751 169.952L115 158.07Z" fill="#FA9E89"/>
<mask id="mask2_147_299" style="mask-type:luminance" maskUnits="userSpaceOnUse" x="192" y="71" width="158" height="220">
<path d="M350 71H192.175V290.844H350V71Z" fill="white"/>
</mask>
<g mask="url(#mask2_147_299)">
<path opacity="0.152" fill-rule="evenodd" clip-rule="evenodd" d="M192.934 123.138C201.046 163.297 338.94 224.828 345.57 290.844C352.688 273.092 351.317 252.586 340.8 235.766C331.886 221.511 319.65 210.979 313.329 199.277C301.29 176.995 364.934 120.659 323.519 85.069C308.9 72.504 277.758 69.604 243.779 71.554C233.435 73.918 185.615 86.885 192.934 123.138Z" fill="white"/>
</g>
<path opacity="0.149" fill-rule="evenodd" clip-rule="evenodd" d="M0.179749 311.952C-0.805237 319.818 2.51978 325.288 3.81976 327.179C26.2488 359.851 148.314 370.742 230.95 364.087C274.096 360.611 309.455 338.372 331 313.867L0.179749 311.952Z" fill="black"/>
<path opacity="0.128" fill-rule="evenodd" clip-rule="evenodd" d="M278.373 315.764C278.373 315.764 288.45 316.374 288.295 319.424C288.14 322.474 281.784 329.182 281.784 329.182L291.293 325.777L320 324.684L316.9 327.353C316.9 327.353 293.773 328.42 292.74 329.233C291.706 330.046 278.476 340.009 276.203 340.415C273.929 340.822 129.515 340.64 129.515 340.64C129.515 340.64 114.657 341.229 112.176 336.654C109.696 332.08 100.704 332.384 98.2228 336.349C95.7428 340.314 96.0868 354.952 96.0868 354.952C96.0868 354.952 89.2937 353.179 88.9207 353.021C65.3557 343.058 38.9998 311.952 38.9998 311.952L278.373 315.764Z" fill="black"/>
<path fill-rule="evenodd" clip-rule="evenodd" d="M309 276.647L294.55 325.81C294.55 325.81 292.494 328.254 291 325.99L300.714 275.952L309 276.647ZM328.866 274.952L336 308.09L332.603 311.952L323 275.906L328.866 274.952Z" fill="#162F44"/>
<path fill-rule="evenodd" clip-rule="evenodd" d="M116.507 286.034L110.482 320.234L109.483 325.903L111.675 326.225L111.831 326.249L116.619 326.952C116.619 326.952 132.59 287.608 133.949 278.165C135.31 268.722 108.804 230.952 108.804 230.952L80.0358 233.4C79.2748 241.619 90.7798 257.111 101.063 269.17C109.164 278.669 116.507 286.034 116.507 286.034Z" fill="#F4F2F9"/>
<path fill-rule="evenodd" clip-rule="evenodd" d="M116.12 284.487L109.243 324.254L111.389 324.575L111.462 324.952L111.542 324.6C112.417 320.77 122.682 286.863 122.994 279.952C123.327 272.626 108.967 249.952 108.967 249.952L101 267.666C108.93 277.14 116.12 284.486 116.12 284.486" fill="#E0DFEA"/>
<path fill-rule="evenodd" clip-rule="evenodd" d="M77.9998 234.952L106.667 232.565L108 184.838C108 184.838 101 159.952 93.3328 159.952C88.7798 159.952 84.3468 161.756 81.6328 166.147C79.7798 169.15 78.7298 173.367 78.9998 179.043C79.6098 191.82 78.2697 227.95 78.0327 234.065C78.0127 234.642 77.9998 234.952 77.9998 234.952Z" fill="#6397D9"/>
<path fill-rule="evenodd" clip-rule="evenodd" d="M85.8848 231.228L85.3467 174.41L91.9998 160.89L84.2368 159.952L81.5078 163.162C79.7178 166.165 78.7048 170.382 78.9658 176.056C79.5548 188.83 78.2288 225.838 77.9998 231.952L85.8848 231.228Z" fill="#8BBFF7"/>
<path fill-rule="evenodd" clip-rule="evenodd" d="M85.9998 175.952L107.017 215.952L107.563 197.961L108 183.363L90.4758 175.952H85.9998Z" fill="#306299"/>
<path fill-rule="evenodd" clip-rule="evenodd" d="M139.671 338.952H268.33C273.119 338.952 277.001 335.044 277.001 330.222V109.682C277.001 104.86 273.119 100.952 268.33 100.952H139.67C134.881 100.952 130.999 104.86 130.999 109.682V330.222C130.999 335.044 134.881 338.952 139.67 338.952" fill="white"/>
<path fill-rule="evenodd" clip-rule="evenodd" d="M139 132.242V220.662C139 222.48 140.456 223.952 142.253 223.952H265.747C267.544 223.952 269 222.48 269 220.662V132.242C269 130.424 267.544 128.952 265.747 128.952H142.253C140.456 128.952 139 130.424 139 132.242Z" fill="#E4DCF1"/>
<path fill-rule="evenodd" clip-rule="evenodd" d="M203.147 152.952L204.699 154.135L208 168.506L207.929 170.873L202.702 170.952C202.347 170.957 201.989 170.887 201.672 170.702C200.177 169.824 199.539 167.377 200.364 165.209C200.808 164.043 201.945 161.979 202.077 161.067C202.391 158.883 203.147 152.952 203.147 152.952Z" fill="#8E2B43"/>
<path fill-rule="evenodd" clip-rule="evenodd" d="M176 226.952L230.224 226.744L232.019 226.738C232.019 226.738 238.506 196.089 228.003 184.277C225.445 181.403 222.12 179.284 218.497 177.907C207.224 173.61 193.044 176.452 190.004 185.873C185.988 198.324 176 226.952 176 226.952Z" fill="#4EC9B4"/>
<path fill-rule="evenodd" clip-rule="evenodd" d="M218.16 178.441C218.16 178.441 215.945 184.467 211.057 185.735C206.169 187.004 200.568 182.511 201.027 177.278C201.027 177.278 205.711 176.591 206.474 174.318C207.402 171.558 206.78 171.464 206.78 171.464C206.78 171.464 204.947 167.974 204.336 165.438C203.725 162.901 204.641 153.068 208.918 152.118C211.623 151.516 215.945 152.435 219 156.875C219 156.875 217.472 165.438 215.334 169.561C213.195 173.684 212.126 175.587 218.16 178.441Z" fill="#FA9E89"/>
<path opacity="0.184" fill-rule="evenodd" clip-rule="evenodd" d="M142.167 101.965L275 288.191V330.435C275 335.139 271.3 338.952 266.737 338.952H146.573C141.286 338.952 137 334.534 137 329.083V105.779C137 102.85 139.33 101.823 142.167 101.965Z" fill="#F4F2F9"/>
<path fill-rule="evenodd" clip-rule="evenodd" d="M182 208.394L175.018 177.952L164 179.768L174.684 223.952L182 208.394Z" fill="#4EC9B4"/>
<path fill-rule="evenodd" clip-rule="evenodd" d="M172.8 177.089L172.2 173.983C172.2 173.983 174 172.799 173.7 171.024C173.4 169.249 174 165.107 174 165.107C174 165.107 173.043 164.46 172.425 165.625C171.985 166.454 171.3 168.362 171.3 168.362C171.3 168.362 169.004 162.196 168.474 160.572C168.249 159.881 168.022 158.805 167.499 158.969C167.224 159.055 167.324 159.684 167.371 160.299C167.511 162.143 168.299 165.083 168.299 165.083L167.899 165.317L166.236 160.041C166.163 159.785 166.043 159.397 165.774 159.376C165.536 159.356 165.299 159.486 165.299 160.078C165.299 161.262 166.574 166.155 166.574 166.155L166.255 166.374L164.32 162.096C164.187 161.773 163.707 161.801 163.625 162.14C163.56 162.408 163.579 162.79 163.798 163.332C164.398 164.812 164.998 167.178 164.998 167.178L164.848 167.351L163.798 165.181C163.61 164.834 163.149 164.611 163.015 164.981C162.827 165.499 164.473 169.951 164.473 170.248C164.473 170.544 165.599 174.574 166.799 174.87C167.999 175.166 168.074 177.952 168.074 177.952L172.8 177.089Z" fill="#FA9E89"/>
<path fill-rule="evenodd" clip-rule="evenodd" d="M242.351 249.952H264.65C265.948 249.952 267.001 248.88 267.001 247.558V244.346C267.001 243.024 265.948 241.952 264.65 241.952H242.352C241.054 241.952 240.001 243.024 240.001 244.346V247.558C240.001 248.88 241.053 249.952 242.351 249.952ZM210.352 249.952H232.65C233.948 249.952 235.001 248.88 235.001 247.558V244.346C235.001 243.024 233.948 241.952 232.65 241.952H210.352C209.054 241.952 208.001 243.024 208.001 244.346V247.558C208.001 248.88 209.054 249.952 210.352 249.952ZM176.352 249.952H198.65C199.948 249.952 201.001 248.88 201.001 247.558V244.346C201.001 243.024 199.948 241.952 198.65 241.952H176.353C175.054 241.952 174.001 243.024 174.001 244.346V247.558C174.001 248.88 175.053 249.952 176.352 249.952ZM144.353 249.952H166.65C167.948 249.952 169.001 248.88 169.001 247.558V244.346C169.001 243.024 167.948 241.952 166.65 241.952H144.352C143.054 241.952 142.001 243.024 142.001 244.346V247.558C142.001 248.88 143.055 249.952 144.353 249.952Z" fill="#FFDEDD"/>
<path fill-rule="evenodd" clip-rule="evenodd" d="M146.547 268.952H264.453C265.86 268.952 267 267.872 267 266.542V263.362C267 262.032 265.86 260.952 264.453 260.952H146.547C145.14 260.952 144 262.032 144 263.362V266.542C144 267.872 145.14 268.952 146.547 268.952ZM264.453 284.952C265.86 284.952 267 283.872 267 282.542V279.362C267 278.032 265.86 276.952 264.453 276.952H146.547C145.14 276.952 144 278.032 144 279.362V282.542C144 283.872 145.14 284.952 146.547 284.952H264.453ZM146.547 300.952H264.453C265.86 300.952 267 299.872 267 298.542V295.362C267 294.032 265.86 292.952 264.453 292.952H146.547C145.14 292.952 144 294.032 144 295.362V298.542C144 299.872 145.14 300.952 146.547 300.952ZM146.547 313.952H264.453C265.86 313.952 267 312.872 267 311.542V308.362C267 307.032 265.86 305.952 264.453 305.952H146.547C145.14 305.952 144 307.032 144 308.362V311.542C144 312.872 145.14 313.952 146.547 313.952Z" fill="#F4F2F9"/>
<path fill-rule="evenodd" clip-rule="evenodd" d="M221.222 149.273C221.222 149.273 214.922 140.425 203.032 145.548C191.144 150.67 204.049 159.052 204.049 159.052C204.049 159.052 204.303 155.792 206.183 154.861L206.03 157.758L212.686 158.923L213.753 156.129L214.439 159.311L217.792 160.552C217.792 160.552 215.049 170.176 213.448 171.573C213.448 171.573 212.762 173.823 212.991 174.289C213.219 174.755 223.355 177.316 224.651 174.988C225.947 172.66 223.279 169.4 222.441 167.227C221.603 165.054 223.965 153.516 221.221 149.273" fill="#FC516B"/>
<path fill-rule="evenodd" clip-rule="evenodd" d="M250.352 124.952H267.648C268.947 124.952 270 123.609 270 121.952C270 120.295 268.947 118.952 267.648 118.952H250.352C249.053 118.952 248 120.295 248 121.952C248 123.609 249.053 124.952 250.352 124.952Z" fill="#E4DCF1"/>
<path fill-rule="evenodd" clip-rule="evenodd" d="M224 196.952C224 196.952 221.336 216.238 218.29 223.952H202.23C202.23 223.952 199.582 215.814 212.277 213.152C221.107 211.301 224 196.952 224 196.952ZM192.389 191.952C192.389 191.952 189.129 201.952 189.741 204.952C190.351 207.952 193 210.152 193 212.152C193 214.152 191.37 221.752 191.37 221.752L182 221.952C182 221.952 183.556 221.686 187.093 218.902C192.491 214.652 187.857 205.277 189.003 199.952C189.603 197.158 192.389 191.952 192.389 191.952ZM182 207.724C182 207.724 181.787 216.107 180.085 214.817C178.383 213.527 179.447 201.06 177.958 196.761C176.468 192.461 172 178.704 172 178.704L175.83 177.952L182 207.724Z" fill="#44AD99"/>
<path fill-rule="evenodd" clip-rule="evenodd" d="M156.623 169.427C156.623 169.427 155.047 170.119 153.123 172.473C152.487 173.253 149.093 174.494 148.29 175.461C136.645 189.481 121.094 200.302 111.127 195.994C98.3968 190.492 95.9998 185.376 95.9998 185.376L104.414 174.014C104.414 174.014 114.077 188.773 121.848 184.753C129.62 180.733 144.94 170.196 144.94 170.196L145.346 163.732C145.346 163.732 146.241 163.492 146.67 164.727C147.1 165.963 147.12 167.031 147.12 167.031L153.169 160.007C153.169 160.007 154.331 159.647 153.977 160.776C153.623 161.906 151.486 165.144 151.486 165.144C151.486 165.144 151.266 165.76 151.729 165.479C152.269 165.152 156.495 160.387 156.495 160.387C156.495 160.387 157.468 160.323 157.071 161.253C156.764 161.97 154.206 165.343 153.341 166.607C153.083 166.983 153.623 166.842 153.623 166.842L157.119 163.872C157.592 163.553 158.082 163.659 157.989 164.24C157.914 164.7 156.962 165.759 156.396 166.179C154.982 167.225 153.996 169.131 153.996 169.131L157.04 168.031C157.04 168.031 157.635 168.559 156.623 169.427ZM84.9998 132.442L88.8498 160.762L101.496 162.952C101.496 162.952 100.856 162.284 100.124 161.392C99.3758 160.485 98.5338 159.342 98.1608 158.426C97.3108 156.322 97.3048 154.36 97.3048 154.36C97.3048 154.36 102.913 154.993 103.782 151.765C104.654 148.533 102.639 133.481 102.639 133.481C102.639 133.481 100.136 124.022 84.9998 132.442Z" fill="#FA9E89"/>
<path fill-rule="evenodd" clip-rule="evenodd" d="M95.6128 132.764C95.6128 132.764 101.849 137.474 107.832 133.462C107.832 133.462 104.04 133.112 102.86 131.194C102.86 131.194 105.22 131.804 108 127.88C108 127.88 103.113 128.578 101.428 127.095C99.7417 125.612 91.1478 123.257 86.0078 126.833C80.8668 130.409 80.9507 133.026 80.9507 133.026C80.9507 133.026 77.9178 134.159 78.0008 135.904C78.0858 137.648 85.5008 151.952 85.5008 151.952L87.1017 145.585C87.1017 145.585 85.8377 145.963 85.0797 142.998C84.3217 140.032 87.6078 141.311 87.9448 141.922C88.2818 142.532 90.4727 137.735 90.4727 137.735L90.1357 134.945C90.1357 134.945 89.0398 131.367 95.6128 132.764Z" fill="#261F27"/>
<path fill-rule="evenodd" clip-rule="evenodd" d="M83.7857 265.336C87.3767 279.823 80.7357 337.745 80.7357 337.745L87.2337 338.952C113.394 278.937 107.41 229.952 107.41 229.952L77.9997 232.366C77.9997 232.366 78.0747 231.142 78.1057 231.432C78.4437 234.44 80.5137 252.121 83.7857 265.336Z" fill="white"/>
<path fill-rule="evenodd" clip-rule="evenodd" d="M116.27 323.028L123.823 328.887C123.823 328.887 126.798 328.528 127.371 329.903C127.943 331.278 128 332.833 128 332.833L120.104 332.952L107 327.751L109.06 321.952L116.27 323.028ZM86.4498 340.292C86.4498 340.292 89.1218 344.614 91.8148 348.144C92.7198 349.33 94.9318 349.845 95.7928 352.739C96.5328 355.229 95.0528 356.952 95.0528 356.952C95.0528 356.952 90.0878 356.058 86.6338 352.995C83.1808 349.931 77.9998 344.058 77.9998 344.058L79.4178 338.952L86.4488 340.292H86.4498Z" fill="#6397D9"/>
<path fill-rule="evenodd" clip-rule="evenodd" d="M286 267.952C286 271.818 298.984 274.952 315 274.952C331.016 274.952 344 271.818 344 267.952C344 264.086 331.016 260.952 315 260.952C298.984 260.952 286 264.086 286 267.952Z" fill="#224A7D"/>
<path fill-rule="evenodd" clip-rule="evenodd" d="M286 266.952C286 270.818 298.984 273.952 315 273.952C331.016 273.952 344 270.818 344 266.952C344 263.086 331.016 259.952 315 259.952C298.984 259.952 286 263.086 286 266.952Z" fill="#6397D9"/>
<path fill-rule="evenodd" clip-rule="evenodd" d="M307 262.952C307 264.609 312.373 265.952 319 265.952C325.627 265.952 331 264.609 331 262.952C331 261.295 325.627 259.952 319 259.952C312.373 259.952 307 261.295 307 262.952ZM344 265.952V269.938C344 269.938 343.93 272.402 339 273.952L340.179 269.634C340.179 269.634 343.642 268.139 344 265.952Z" fill="#162F44"/>
<path fill-rule="evenodd" clip-rule="evenodd" d="M286.006 265.952V270.037C286.006 270.037 285.616 272.08 291 273.952L289.348 269.186C289.348 269.186 286.488 267.909 286.006 265.952Z" fill="#8CC5F2"/>
<path fill-rule="evenodd" clip-rule="evenodd" d="M305 252.99L306.968 260.68C307.456 262.594 309.391 263.952 311.621 263.952H315.854C317.439 263.952 318.879 263.267 319.754 262.18C320.06 261.8 320.295 261.367 320.446 260.902L322.152 255.589L323 252.952L305 252.99Z" fill="#FC516B"/>
<path fill-rule="evenodd" clip-rule="evenodd" d="M305 251.952C305 252.504 309.03 252.952 314 252.952C318.97 252.952 323 252.504 323 251.952C323 251.4 318.97 250.952 314 250.952C309.03 250.952 305 251.4 305 251.952Z" fill="#9B293F"/>
<path fill-rule="evenodd" clip-rule="evenodd" d="M317.406 262.609C317.052 262.746 316.718 262.862 316.406 262.952L318.516 262.628C318.81 262.219 319.033 261.762 319.173 261.278L320.789 255.67C320.87 255.4 321 254.97 321 254.952C321 254.952 316.785 256.194 313 255.77C314.231 255.934 317.31 256.182 319.168 256.09C319.274 256.083 319.381 256.1 319.48 256.139C319.58 256.179 319.669 256.24 319.742 256.317C319.815 256.395 319.87 256.488 319.903 256.59C319.935 256.692 319.945 256.799 319.932 256.905C319.698 258.562 319.027 261.979 317.406 262.609Z" fill="#F995A9"/>
<path fill-rule="evenodd" clip-rule="evenodd" d="M313 249.853L313.679 252.94L314.173 252.952C314.173 252.952 314.201 249.853 317.847 247.952C321.497 246.052 320.974 238.952 320.974 238.952L320.971 238.961C320.883 239.144 319.483 242.061 318.422 242.251C317.328 242.453 316.649 244.201 316.649 244.201C316.649 244.201 316.127 244.951 315.502 244.801C314.876 244.651 314.251 246.301 314.251 246.301L314.044 248.053L313 249.853Z" fill="#51A595"/>
<path fill-rule="evenodd" clip-rule="evenodd" d="M317.993 255.939C317.993 255.939 318.693 232.503 306.393 225.952C306.393 225.952 302.892 227.304 306.993 232.919C311.093 238.534 307.792 242.589 309.593 244.046C311.393 245.501 313.993 246.437 313.593 248.309C313.193 250.181 313.693 252.053 314.493 252.261C315.293 252.468 317.093 253.573 317.373 255.952L317.993 255.939Z" fill="#4EC9B4"/>
<path fill-rule="evenodd" clip-rule="evenodd" d="M318 251.752L318.04 252.94L318.578 252.952C318.578 252.952 318.608 249.853 322.572 247.952C326.54 246.052 325.972 238.952 325.972 238.952L325.968 238.961L325.632 240.029C325.632 246.479 321.909 247.816 320.42 248.677C318.931 249.538 318 251.752 318 251.752Z" fill="#41877A"/>
<path fill-rule="evenodd" clip-rule="evenodd" d="M98.1848 163.057C98.1848 163.057 87.6328 163.229 86.6908 161.952L85.9998 163.85C85.9998 163.85 94.3598 168.407 99.9998 166.474L98.1848 163.057Z" fill="#306299"/>
<path fill-rule="evenodd" clip-rule="evenodd" d="M113 176.868L100.412 190.952C100.412 190.952 83.5898 175.87 84.0078 171.142C84.4248 166.415 90.5878 156.627 100.042 165.619C109.24 174.367 113 176.868 113 176.868Z" fill="#8CC5F2"/>
<path fill-rule="evenodd" clip-rule="evenodd" d="M80.5648 338.606L83.1308 338.952C83.1308 338.952 95.1568 296.482 91.2008 265.105C90.0118 255.671 85.8568 231.952 85.8568 231.952L77.9998 232.689C78.3178 235.712 80.3568 252.544 83.4258 265.826C86.7928 280.388 80.5658 338.606 80.5658 338.606" fill="#F4F2F9"/>
<path fill-rule="evenodd" clip-rule="evenodd" d="M94.2527 161.51C95.7407 161.834 96.5518 161.937 96.9998 161.952C96.3018 160.986 95.5158 159.77 95.1678 158.794C94.3748 156.553 94.3687 154.464 94.3687 154.464C94.3687 154.464 91.3978 153.682 91.0918 154.051C90.7878 154.419 91.0917 160.821 94.2527 161.51Z" fill="#E6846F"/>
<path fill-rule="evenodd" clip-rule="evenodd" d="M240 164.952C240 175.444 248.048 183.952 257.973 183.952C262.129 183.952 265.954 182.461 269 179.956V149.948C265.954 147.442 262.13 145.952 257.973 145.952C248.048 145.952 240 154.46 240 164.952Z" fill="#CEC3E2"/>
<path fill-rule="evenodd" clip-rule="evenodd" d="M240 165.452C240 175.668 247.493 183.952 256.734 183.952C260.604 183.952 264.164 182.5 267 180.062V150.842C264.165 148.405 260.603 146.952 256.734 146.952C247.493 146.952 240 155.236 240 165.452Z" fill="#C3B8D8"/>
<path fill-rule="evenodd" clip-rule="evenodd" d="M214 182.048C214 182.048 215.985 180.944 216.298 180.743C216.612 180.544 220.688 181.645 226.124 187.259C231.557 192.873 226.854 197.583 229.152 200.589C231.453 203.597 229.259 209.912 228.108 214.224C226.958 218.534 228.108 223.946 228.108 223.946L228.168 223.952L229.989 223.946C229.989 223.946 236.573 195.078 225.914 183.951C223.318 181.245 219.944 179.248 216.267 177.952L214 182.048Z" fill="#44AD99"/>
</g>
<defs>
<clipPath id="clip0_147_299">
<rect width="440" height="380" fill="white"/>
</clipPath>
</defs>
</svg>
