<svg width="1529" height="1011" viewBox="0 0 1529 1011" fill="none" xmlns="http://www.w3.org/2000/svg">
<path fill-rule="evenodd" clip-rule="evenodd" d="M136.231 141.034C185.028 141.639 239.295 153.215 254.441 195.73C269.633 238.371 233.661 277.518 194.397 304.3C153.184 332.412 100.829 355.589 57.805 329.857C9.09567 300.724 -12.9297 242.493 7.76201 192.675C26.1533 148.396 84.5382 140.394 136.231 141.034Z" fill="#6C63FF"/>
<path fill-rule="evenodd" clip-rule="evenodd" d="M1400.71 634.421C1416.43 642.406 1432.94 647.116 1447.62 657.24C1461.32 666.68 1472.1 679.53 1483.88 691.745C1497.31 705.659 1519.9 714.361 1522.23 734.581C1524.64 755.487 1494.36 768.223 1495.11 789.283C1496.26 821.377 1537.7 847.462 1527.34 877.454C1518.68 902.536 1482.03 895.488 1457.87 897.12C1438.32 898.442 1419.78 881.005 1400.71 886.01C1373.61 893.125 1356.7 931.558 1328.85 930.994C1303.57 930.482 1272.37 910.853 1267.47 883.312C1261.47 849.634 1303.53 824.259 1303.75 789.931C1303.91 766.286 1274.54 754.523 1268.46 731.861C1260.92 703.776 1253.44 671.547 1264.89 645.138C1276.07 619.326 1301.54 598.149 1327.28 596.118C1354.6 593.963 1375.81 621.772 1400.71 634.421Z" fill="#FFCC33"/>
<g filter="url(#filter0_d_197_72)">
<g filter="url(#filter1_d_197_72)">
<path d="M1413.05 171.959H240.954C208.957 171.959 183.018 195.19 183.018 223.848V888.418C183.018 917.076 208.957 940.307 240.954 940.307H1413.05C1445.04 940.307 1470.98 917.076 1470.98 888.418V223.848C1470.98 195.19 1445.04 171.959 1413.05 171.959Z" fill="black"/>
</g>
<path d="M1413.05 171.959H240.954C208.957 171.959 183.018 195.19 183.018 223.848V888.418C183.018 917.076 208.957 940.307 240.954 940.307H1413.05C1445.04 940.307 1470.98 917.076 1470.98 888.418V223.848C1470.98 195.19 1445.04 171.959 1413.05 171.959Z" fill="#777777"/>
<path d="M1411.33 175.951H243.182C212.416 175.951 187.475 198.288 187.475 225.843V888.149C187.475 915.704 212.416 938.042 243.182 938.042H1411.33C1442.1 938.042 1467.04 915.704 1467.04 888.149V225.843C1467.04 198.288 1442.1 175.951 1411.33 175.951Z" fill="url(#paint0_linear_197_72)"/>
<path opacity="0.1" d="M1342.84 204.495H314.555C308.402 204.495 303.414 208.963 303.414 214.474V900.51C303.414 906.021 308.402 910.489 314.555 910.489H1342.84C1348.99 910.489 1353.98 906.021 1353.98 900.51V214.474C1353.98 208.963 1348.99 204.495 1342.84 204.495Z" fill="#2A2A2A"/>
<path d="M1406.43 210.482H247.706C237.861 210.482 229.879 217.63 229.879 226.448V885.032C229.879 893.849 237.861 900.997 247.706 900.997H1406.43C1416.27 900.997 1424.25 893.849 1424.25 885.032V226.448C1424.25 217.63 1416.27 210.482 1406.43 210.482Z" fill="#E8EAF6"/>
<mask id="mask0_197_72" style="mask-type:luminance" maskUnits="userSpaceOnUse" x="229" y="210" width="1196" height="691">
<path d="M1406.43 210.482H247.706C237.861 210.482 229.879 217.63 229.879 226.448V885.032C229.879 893.849 237.861 900.997 247.706 900.997H1406.43C1416.27 900.997 1424.25 893.849 1424.25 885.032V226.448C1424.25 217.63 1416.27 210.482 1406.43 210.482Z" fill="white"/>
</mask>
<g mask="url(#mask0_197_72)">
<path fill-rule="evenodd" clip-rule="evenodd" d="M222.014 210.876H1440.9V328.622H222.014V210.876Z" fill="#5267DF"/>
<path opacity="0.245" d="M315.603 302.678C335.293 302.678 351.256 288.382 351.256 270.747C351.256 253.112 335.293 238.816 315.603 238.816C295.912 238.816 279.95 253.112 279.95 270.747C279.95 288.382 295.912 302.678 315.603 302.678Z" fill="white"/>
<path opacity="0.104" d="M1342.85 302.678C1362.54 302.678 1378.51 288.382 1378.51 270.747C1378.51 253.112 1362.54 238.816 1342.85 238.816C1323.16 238.816 1307.2 253.112 1307.2 270.747C1307.2 288.382 1323.16 302.678 1342.85 302.678Z" fill="white"/>
<path opacity="0.75" d="M645.392 250.79H391.365C387.673 250.79 384.68 253.47 384.68 256.777C384.68 260.084 387.673 262.764 391.365 262.764H645.392C649.084 262.764 652.077 260.084 652.077 256.777C652.077 253.47 649.084 250.79 645.392 250.79Z" fill="white"/>
<path opacity="0.25" d="M520.607 278.73H391.365C387.673 278.73 384.68 281.41 384.68 284.717C384.68 288.023 387.673 290.704 391.365 290.704H520.607C524.299 290.704 527.292 288.023 527.292 284.717C527.292 281.41 524.299 278.73 520.607 278.73Z" fill="white"/>
</g>
<mask id="mask1_197_72" style="mask-type:luminance" maskUnits="userSpaceOnUse" x="229" y="210" width="1196" height="691">
<path d="M1406.43 210.482H247.706C237.861 210.482 229.879 217.63 229.879 226.448V885.032C229.879 893.849 237.861 900.997 247.706 900.997H1406.43C1416.27 900.997 1424.25 893.849 1424.25 885.032V226.448C1424.25 217.63 1416.27 210.482 1406.43 210.482Z" fill="white"/>
</mask>
<g mask="url(#mask1_197_72)">
<path d="M920.656 396.083H374.72C364.874 396.083 356.893 403.231 356.893 412.049V1010.76C356.893 1019.58 364.874 1026.73 374.72 1026.73H920.656C930.501 1026.73 938.482 1019.58 938.482 1010.76V412.049C938.482 403.231 930.501 396.083 920.656 396.083Z" fill="white"/>
<path d="M1281.64 396.083H1032.07C1022.23 396.083 1014.24 403.231 1014.24 412.049V1010.76C1014.24 1019.58 1022.23 1026.73 1032.07 1026.73H1281.64C1291.49 1026.73 1299.47 1019.58 1299.47 1010.76V412.049C1299.47 403.231 1291.49 396.083 1281.64 396.083Z" fill="white"/>
<path opacity="0.5" d="M792.461 472.313H538.433C534.741 472.313 531.749 474.994 531.749 478.3C531.749 481.607 534.741 484.288 538.433 484.288H792.461C796.153 484.288 799.146 481.607 799.146 478.3C799.146 474.994 796.153 472.313 792.461 472.313Z" fill="#242A45"/>
</g>
<path d="M462.671 524.202C482.362 524.202 498.324 509.906 498.324 492.27C498.324 474.635 482.362 460.339 462.671 460.339C442.98 460.339 427.018 474.635 427.018 492.27C427.018 509.906 442.98 524.202 462.671 524.202Z" fill="#F98E5D"/>
<path opacity="0.25" d="M1249.26 440.382H1066.54C1062.85 440.382 1059.86 443.062 1059.86 446.369C1059.86 449.676 1062.85 452.356 1066.54 452.356H1249.26C1252.96 452.356 1255.95 449.676 1255.95 446.369C1255.95 443.062 1252.96 440.382 1249.26 440.382Z" fill="#242A45"/>
<path opacity="0.25" d="M1249.26 480.296H1066.54C1062.85 480.296 1059.86 482.977 1059.86 486.283C1059.86 489.59 1062.85 492.27 1066.54 492.27H1249.26C1252.96 492.27 1255.95 489.59 1255.95 486.283C1255.95 482.977 1252.96 480.296 1249.26 480.296Z" fill="#242A45"/>
<path opacity="0.25" d="M1249.26 520.21H1066.54C1062.85 520.21 1059.86 522.891 1059.86 526.197C1059.86 529.504 1062.85 532.185 1066.54 532.185H1249.26C1252.96 532.185 1255.95 529.504 1255.95 526.197C1255.95 522.891 1252.96 520.21 1249.26 520.21Z" fill="#242A45"/>
<path opacity="0.25" d="M1249.26 560.124H1066.54C1062.85 560.124 1059.86 562.805 1059.86 566.112C1059.86 569.418 1062.85 572.099 1066.54 572.099H1249.26C1252.96 572.099 1255.95 569.418 1255.95 566.112C1255.95 562.805 1252.96 560.124 1249.26 560.124Z" fill="#242A45"/>
<path opacity="0.25" d="M1249.26 627.979H1066.54C1062.85 627.979 1059.86 630.659 1059.86 633.966C1059.86 637.272 1062.85 639.953 1066.54 639.953H1249.26C1252.96 639.953 1255.95 637.272 1255.95 633.966C1255.95 630.659 1252.96 627.979 1249.26 627.979Z" fill="#242A45"/>
<path opacity="0.25" d="M1249.26 667.893H1066.54C1062.85 667.893 1059.86 670.573 1059.86 673.88C1059.86 677.186 1062.85 679.867 1066.54 679.867H1249.26C1252.96 679.867 1255.95 677.186 1255.95 673.88C1255.95 670.573 1252.96 667.893 1249.26 667.893Z" fill="#242A45"/>
<path opacity="0.25" d="M1249.26 707.807H1066.54C1062.85 707.807 1059.86 710.487 1059.86 713.794C1059.86 717.101 1062.85 719.781 1066.54 719.781H1249.26C1252.96 719.781 1255.95 717.101 1255.95 713.794C1255.95 710.487 1252.96 707.807 1249.26 707.807Z" fill="#242A45"/>
<path opacity="0.25" d="M667.675 500.253H538.433C534.741 500.253 531.749 502.934 531.749 506.24C531.749 509.547 534.741 512.227 538.433 512.227H667.675C671.367 512.227 674.36 509.547 674.36 506.24C674.36 502.934 671.367 500.253 667.675 500.253Z" fill="#242A45"/>
<path d="M462.671 635.961C482.362 635.961 498.324 621.665 498.324 604.03C498.324 586.395 482.362 572.099 462.671 572.099C442.98 572.099 427.018 586.395 427.018 604.03C427.018 621.665 442.98 635.961 462.671 635.961Z" fill="#6AC6D6"/>
<path opacity="0.5" d="M792.461 584.073H538.433C534.741 584.073 531.749 586.753 531.749 590.06C531.749 593.367 534.741 596.047 538.433 596.047H792.461C796.153 596.047 799.146 593.367 799.146 590.06C799.146 586.753 796.153 584.073 792.461 584.073Z" fill="#242A45"/>
<path opacity="0.25" d="M667.675 612.013H538.433C534.741 612.013 531.749 614.693 531.749 618C531.749 621.307 534.741 623.987 538.433 623.987H667.675C671.367 623.987 674.36 621.307 674.36 618C674.36 614.693 671.367 612.013 667.675 612.013Z" fill="#242A45"/>
<path d="M462.671 747.721C482.362 747.721 498.324 733.425 498.324 715.79C498.324 698.155 482.362 683.858 462.671 683.858C442.98 683.858 427.018 698.155 427.018 715.79C427.018 733.425 442.98 747.721 462.671 747.721Z" fill="#A47ED4"/>
<path opacity="0.5" d="M792.461 695.833H538.433C534.741 695.833 531.749 698.513 531.749 701.82C531.749 705.126 534.741 707.807 538.433 707.807H792.461C796.153 707.807 799.146 705.126 799.146 701.82C799.146 698.513 796.153 695.833 792.461 695.833Z" fill="#242A45"/>
<path opacity="0.25" d="M667.675 723.773H538.433C534.741 723.773 531.749 726.453 531.749 729.76C531.749 733.066 534.741 735.747 538.433 735.747H667.675C671.367 735.747 674.36 733.066 674.36 729.76C674.36 726.453 671.367 723.773 667.675 723.773Z" fill="#242A45"/>
<path d="M462.671 859.481C482.362 859.481 498.324 845.185 498.324 827.549C498.324 809.914 482.362 795.618 462.671 795.618C442.98 795.618 427.018 809.914 427.018 827.549C427.018 845.185 442.98 859.481 462.671 859.481Z" fill="#EC7878"/>
<path opacity="0.5" d="M792.461 807.592H538.433C534.741 807.592 531.749 810.273 531.749 813.579C531.749 816.886 534.741 819.567 538.433 819.567H792.461C796.153 819.567 799.146 816.886 799.146 813.579C799.146 810.273 796.153 807.592 792.461 807.592Z" fill="#242A45"/>
<path opacity="0.25" d="M667.675 835.532H538.433C534.741 835.532 531.749 838.213 531.749 841.519C531.749 844.826 534.741 847.506 538.433 847.506H667.675C671.367 847.506 674.36 844.826 674.36 841.519C674.36 838.213 671.367 835.532 667.675 835.532Z" fill="#242A45"/>
</g>
<g clip-path="url(#clip0_197_72)">
<path d="M474.959 189.659C476.088 188.203 476.836 186.51 477.144 184.72L489.71 170.094L482.294 164.551L470.345 179.986C468.672 180.823 467.23 182.034 466.143 183.52C463.372 187.195 463.094 191.552 465.53 193.245C467.963 194.942 472.183 193.334 474.955 189.659H474.959Z" fill="#FFB6B6"/>
<path d="M525.855 131.608L510.135 121.512L478.235 168.163L486.542 176.733L525.855 131.608Z" fill="#6C63FF"/>
<path d="M392 188.388C392 188.71 392.27 188.97 392.605 188.97H658.395C658.73 188.97 659 188.71 659 188.388C659 188.066 658.73 187.806 658.395 187.806H392.605C392.27 187.806 392 188.066 392 188.388Z" fill="#3F3D56"/>
<path d="M499.027 118.549L497.273 106.934L512.761 103.148L514.819 113.425L499.027 118.549Z" fill="#FFB6B6"/>
<path d="M452.313 242.978L454.152 259.465L466.81 255.734L464.767 242.586L452.313 242.978Z" fill="#FFB6B6"/>
<path d="M497.03 171.342C497.03 171.342 455.578 178.996 450.678 190.578C445.779 202.159 451.496 245.531 451.496 245.531L465.584 246.906L471.505 197.054C471.505 197.054 507.445 196.464 510.097 192.345C512.749 188.225 512.344 173.306 512.344 173.306L497.03 171.342Z" fill="#2F2E41"/>
<path d="M452.478 251.355L444.268 259.194C444.268 259.194 430.257 270.257 439.242 269.668C448.227 269.079 471.505 263.781 471.3 259.658C471.096 255.534 467.419 247.295 467.419 247.295L452.475 251.351H452.478V251.355Z" fill="#2F2E41"/>
<path d="M500.303 247.728L509.561 261.717L519.186 252.978L511.284 242.063L500.303 247.728Z" fill="#FFB6B6"/>
<path d="M507.302 164.459C507.302 164.459 473.69 188.999 474.642 201.466C475.598 213.933 500.746 250.362 500.746 250.362L514.006 245.583L496.298 198.384C496.298 198.384 528.233 182.527 528.707 177.703C529.181 172.88 521.931 159.687 521.931 159.687L507.299 164.459H507.302Z" fill="#2F2E41"/>
<path d="M504.593 254.234L499.917 266.189C499.917 266.189 493.137 281.583 500.916 277.222C508.694 272.861 527.108 258.187 525.022 254.578C522.937 250.97 515.837 245.153 515.837 245.153L504.593 254.234Z" fill="#2F2E41"/>
<path d="M504.454 110.572C511.415 110.572 517.059 105.148 517.059 98.4574C517.059 91.7666 511.415 86.3427 504.454 86.3427C497.493 86.3427 491.85 91.7666 491.85 98.4574C491.85 105.148 497.493 110.572 504.454 110.572Z" fill="#FFB6B6"/>
<path d="M513.774 107.756L498.051 118.945L495.6 167.619L489.679 173.113L510.097 192.348C510.097 192.348 532.558 185.676 530.31 175.469L528.063 165.263L528.873 153.874C530.06 137.221 524.663 120.753 513.767 107.76H513.774V107.756Z" fill="#6C63FF"/>
<path d="M513.52 108.008L505.849 107.764C505.849 107.764 507.838 96.2123 503.097 96.2753L498.811 94.3154C498.811 94.3154 488.091 87.3726 493.006 84.4606C497.924 81.5523 501.355 78.9367 504.165 80.4372C506.978 81.9376 512.676 82.523 512.676 82.523C512.676 82.523 522.782 86.6131 522.482 90.0327C522.181 93.4522 519.884 108.431 513.516 108.005H513.52V108.008Z" fill="#2F2E41"/>
<path d="M480.062 190.44C481.114 188.933 481.777 187.206 481.993 185.406L493.796 170.205L486.106 165.018L474.962 180.997C473.332 181.912 471.956 183.194 470.946 184.724C468.363 188.529 468.313 192.889 470.83 194.468C473.347 196.046 477.479 194.242 480.062 190.44Z" fill="#FFB6B6"/>
<path d="M527.921 130.052L511.709 120.712L482.232 168.819L490.967 176.981L527.921 130.052Z" fill="#6C63FF"/>
<path d="M610.355 201.914L613.816 233.776L600.618 234.795L599.863 203.87L610.355 201.914Z" fill="#FFB6B6"/>
<path d="M613.974 226.748L624.613 231.127C624.613 231.127 641.882 236.443 633.305 239.081C624.729 241.719 601.058 245.046 599.666 241.141C598.275 237.236 598.529 228.274 598.529 228.274L613.974 226.751V226.748Z" fill="#2F2E41"/>
<path d="M557.131 161.198L562.616 163.725C562.616 163.725 602.927 161.55 605.664 168.738C608.401 175.929 613.693 218.89 613.693 218.89L599.462 219.768L593.26 190.659L557.135 161.198H557.131Z" fill="#2F2E41"/>
<path d="M595.31 169.89C593.957 168.623 592.312 167.685 590.504 167.156L577.074 153.259L570.379 159.594L584.722 173.009C585.366 174.713 586.426 176.247 587.813 177.477C591.24 180.604 595.696 181.438 597.766 179.344C599.836 177.251 598.737 173.017 595.31 169.894V169.89Z" fill="#FFB6B6"/>
<path d="M590.273 201.262L569.018 225.936L559.02 217.593L581.473 195.427L590.273 201.262Z" fill="#FFB6B6"/>
<path d="M573.967 219.175L578.161 229.541C578.161 229.541 586.298 245.116 578.335 241.074C570.371 237.032 551.333 223.113 553.257 219.423C555.18 215.733 562.022 209.635 562.022 209.635L573.967 219.171V219.175Z" fill="#2F2E41"/>
<path d="M533.051 171.194C533.051 171.194 525.022 189.429 538.159 189.429C551.295 189.429 582.128 188.377 582.128 188.377L573.004 203.807L583.77 209.068C583.77 209.068 606.393 188.551 604.932 179.259C603.471 169.968 562.616 163.725 562.616 163.725L554.363 165.811L533.051 171.194Z" fill="#2F2E41"/>
<path d="M532 84C532 84 546.162 84.7224 547.43 89.9462C548.698 95.1663 545.796 100.498 550.352 100.442C554.908 100.386 556.5 102.335 556.5 102.335C556.5 102.335 551.851 114.987 544.551 115.713C537.25 116.439 532 84 532 84Z" fill="#2F2E41"/>
<path d="M541.462 119.012L541.901 107.282L526.078 105.126L525.184 115.555L541.462 119.012Z" fill="#FFB6B6"/>
<path d="M545.76 95.7566C547.968 102.099 544.407 108.964 537.808 111.087C531.209 113.21 524.066 109.787 521.857 103.444C519.649 97.1015 523.21 90.2364 529.809 88.1136C536.408 85.9907 543.551 89.414 545.76 95.7566Z" fill="#FFB6B6"/>
<path d="M543.605 114.418L529.12 111.517L526.421 134.776C525.731 137.354 527.065 147.15 527.774 149.721L532.138 177.933L562.616 163.721L555.674 147.19L557.181 135.298L543.601 114.418H543.605Z" fill="#6C63FF"/>
<path d="M550.489 145.612C548.639 145.983 546.912 146.772 545.444 147.917L525.947 150.858L527.674 159.735L547.263 155.793C549.094 156.23 551.01 156.241 552.845 155.826C557.459 154.841 560.666 151.755 560.014 148.935C559.363 146.116 555.096 144.627 550.486 145.612H550.489Z" fill="#FFB6B6"/>
<path d="M538.968 129.089L525.889 118.334L506.593 150.858C506.023 158.438 513.219 164.403 520.936 162.74L538.243 158.683L534.94 145.297L525.211 144.953L538.976 129.085H538.968V129.089Z" fill="#6C63FF"/>
<path d="M524.112 86.4686C524.112 86.4686 508.601 90.5772 512.121 96.4827C515.64 102.388 519.772 104.048 519.259 107.382C518.747 110.717 522.829 123.65 529.038 121.653C535.248 119.656 544.519 115.833 544.519 115.833C544.519 115.833 531.428 105.263 533.733 103.47C536.038 101.677 528.765 89.0212 528.765 89.0212C528.765 89.0212 536.146 85.5906 540.059 86.6205C543.971 87.6504 546.153 87.3022 546.153 87.3022C546.153 87.3022 535.495 77.7104 530.758 81.5227C526.02 85.3349 524.116 86.4723 524.116 86.4723C524.116 86.4723 524.116 86.4723 524.116 86.4686H524.112Z" fill="#2F2E41"/>
<path d="M543.485 116L531 129.645L574.919 166.182L584.849 159.398L543.485 116Z" fill="#6C63FF"/>
</g>
<g clip-path="url(#clip1_197_72)">
<ellipse cx="1408.09" cy="99.3999" rx="7" ry="6.37755" transform="rotate(90 1408.09 99.3999)" fill="black" fill-opacity="0.19"/>
<ellipse cx="1408.09" cy="7" rx="7" ry="6.37755" transform="rotate(90 1408.09 7)" fill="black" fill-opacity="0.19"/>
<ellipse cx="1408.09" cy="37.7999" rx="7" ry="6.37755" transform="rotate(90 1408.09 37.7999)" fill="black" fill-opacity="0.19"/>
<ellipse cx="1408.09" cy="68.5999" rx="7" ry="6.37755" transform="rotate(90 1408.09 68.5999)" fill="black" fill-opacity="0.19"/>
<ellipse cx="1506.62" cy="161" rx="7" ry="6.37755" transform="rotate(90 1506.62 161)" fill="black" fill-opacity="0.19"/>
<ellipse cx="1408.09" cy="133" rx="7" ry="6.37755" transform="rotate(90 1408.09 133)" fill="black" fill-opacity="0.19"/>
<ellipse cx="1408.09" cy="161" rx="7" ry="6.37755" transform="rotate(90 1408.09 161)" fill="black" fill-opacity="0.19"/>
<ellipse cx="1440.93" cy="7" rx="7" ry="6.37755" transform="rotate(90 1440.93 7)" fill="black" fill-opacity="0.19"/>
<ellipse cx="1440.93" cy="37.7999" rx="7" ry="6.37755" transform="rotate(90 1440.93 37.7999)" fill="black" fill-opacity="0.19"/>
<ellipse cx="1440.93" cy="68.5999" rx="7" ry="6.37755" transform="rotate(90 1440.93 68.5999)" fill="black" fill-opacity="0.19"/>
<ellipse cx="1440.93" cy="99.3999" rx="7" ry="6.37755" transform="rotate(90 1440.93 99.3999)" fill="black" fill-opacity="0.19"/>
<ellipse cx="1440.93" cy="130.2" rx="7" ry="6.37755" transform="rotate(90 1440.93 130.2)" fill="black" fill-opacity="0.19"/>
<ellipse cx="1440.93" cy="161" rx="7" ry="6.37755" transform="rotate(90 1440.93 161)" fill="black" fill-opacity="0.19"/>
<ellipse cx="1473.78" cy="7" rx="7" ry="6.37755" transform="rotate(90 1473.78 7)" fill="black" fill-opacity="0.19"/>
<ellipse cx="1473.78" cy="37.7999" rx="7" ry="6.37755" transform="rotate(90 1473.78 37.7999)" fill="black" fill-opacity="0.19"/>
<ellipse cx="1473.78" cy="68.5999" rx="7" ry="6.37755" transform="rotate(90 1473.78 68.5999)" fill="black" fill-opacity="0.19"/>
<ellipse cx="1473.78" cy="99.3999" rx="7" ry="6.37755" transform="rotate(90 1473.78 99.3999)" fill="black" fill-opacity="0.19"/>
<ellipse cx="1473.78" cy="130.2" rx="7" ry="6.37755" transform="rotate(90 1473.78 130.2)" fill="black" fill-opacity="0.19"/>
<ellipse cx="1473.78" cy="161" rx="7" ry="6.37755" transform="rotate(90 1473.78 161)" fill="black" fill-opacity="0.19"/>
<ellipse cx="1506.62" cy="7" rx="7" ry="6.37755" transform="rotate(90 1506.62 7)" fill="black" fill-opacity="0.19"/>
<ellipse cx="1506.62" cy="37.8" rx="7" ry="6.37755" transform="rotate(90 1506.62 37.8)" fill="black" fill-opacity="0.19"/>
<ellipse cx="1506.62" cy="68.6" rx="7" ry="6.37755" transform="rotate(90 1506.62 68.6)" fill="black" fill-opacity="0.19"/>
<ellipse cx="1506.62" cy="99.4" rx="7" ry="6.37755" transform="rotate(90 1506.62 99.4)" fill="black" fill-opacity="0.19"/>
<ellipse cx="1506.62" cy="130.2" rx="7" ry="6.37755" transform="rotate(90 1506.62 130.2)" fill="black" fill-opacity="0.19"/>
</g>
<defs>
<filter id="filter0_d_197_72" x="179.018" y="169.959" width="1295.96" height="776.348" filterUnits="userSpaceOnUse" color-interpolation-filters="sRGB">
<feFlood flood-opacity="0" result="BackgroundImageFix"/>
<feColorMatrix in="SourceAlpha" type="matrix" values="0 0 0 0 0 0 0 0 0 0 0 0 0 0 0 0 0 0 127 0" result="hardAlpha"/>
<feOffset dy="2"/>
<feGaussianBlur stdDeviation="2"/>
<feColorMatrix type="matrix" values="0 0 0 0 0 0 0 0 0 0 0 0 0 0 0 0 0 0 0.5 0"/>
<feBlend mode="normal" in2="BackgroundImageFix" result="effect1_dropShadow_197_72"/>
<feBlend mode="normal" in="SourceGraphic" in2="effect1_dropShadow_197_72" result="shape"/>
</filter>
<filter id="filter1_d_197_72" x="143.018" y="161.959" width="1367.96" height="848.348" filterUnits="userSpaceOnUse" color-interpolation-filters="sRGB">
<feFlood flood-opacity="0" result="BackgroundImageFix"/>
<feColorMatrix in="SourceAlpha" type="matrix" values="0 0 0 0 0 0 0 0 0 0 0 0 0 0 0 0 0 0 127 0" result="hardAlpha"/>
<feOffset dy="30"/>
<feGaussianBlur stdDeviation="20"/>
<feColorMatrix type="matrix" values="0 0 0 0 0.182433 0 0 0 0 0.230633 0 0 0 0 0.506058 0 0 0 0.20012 0"/>
<feBlend mode="normal" in2="BackgroundImageFix" result="effect1_dropShadow_197_72"/>
<feBlend mode="normal" in="SourceGraphic" in2="effect1_dropShadow_197_72" result="shape"/>
</filter>
<linearGradient id="paint0_linear_197_72" x1="126881" y1="54798.8" x2="31749.6" y2="-15836.4" gradientUnits="userSpaceOnUse">
<stop stop-color="#151515"/>
<stop offset="1" stop-color="#3D3D3D"/>
</linearGradient>
<clipPath id="clip0_197_72">
<rect width="267" height="198" fill="white" transform="translate(392 80)"/>
</clipPath>
<clipPath id="clip1_197_72">
<rect width="168" height="125" fill="white" transform="matrix(0 1 -1 0 1513 0)"/>
</clipPath>
</defs>
</svg>
