<svg width="1874" height="1418" viewBox="0 0 1874 1418" fill="none" xmlns="http://www.w3.org/2000/svg">
<path d="M0 485.616C0 217.418 217.418 0 485.616 0H1575C1740.13 0 1874 133.868 1874 299.003V1165.24C1874 1254.93 1753.77 1284.52 1712.15 1205.07L1709.98 1200.94C1687.16 1157.39 1631.33 1143.7 1590.96 1171.77V1171.77C1578.25 1180.61 1568.31 1192.88 1562.3 1207.14L1554.48 1225.72C1519.53 1308.7 1420.27 1342.94 1341.59 1299.16L1283.14 1266.63C1197.51 1218.98 1090.36 1236.49 1024.36 1308.92L1001.2 1334.35C909.586 1434.89 755.128 1445.66 650.447 1358.81L613.96 1328.54C501.67 1235.38 339.054 1235.05 226.383 1327.75L210.25 1341.02V1341.02C126.366 1410.03 0 1350.36 0 1241.74V485.616Z" fill="#9A85F4"/>
</svg>
